# xmcd
#
# Track frame offsets:
#	150
#	11232
#	25228
#	43696
#	56218
#	68080
#	85542
#	96638
#	112151
#	127822
#	134619
#	146852
#	157330
#	168814
#	181952
#	196791
#	209276
#	222143
#	232164
#
# Disc length: 3275
#
# Revision: 1
# Processed by: cddbd v1.5.1PL0 Copyright (c) Steve Scherf et al.
# Submitted via: CDex 1.51
# Normalized: r0:TDELIM( - )
#
DISCID=1f0cc913
DTITLE=Various Artist - The Ultimate Blues Collection 3
DYEAR=1900
DGENRE=Blues
TTITLE0=John Lee Hooker - Boom Boom
TTITLE1=Floyd Jones - Ain't Times Hard
TTITLE2=Robert Cray - The Score
TTITLE3=Elmore James - The Sky is Crying
TTITLE4=Little Willie Littlefield - K.C. Loving
TTITLE5=Howlin' Wolf - Crying at Daybreak
TTITLE6=Lowell Fulson - Talkin' Woman
TTITLE7=Johnny "Guitar" Watson - Three Hours Past Midnight
TTITLE8=Magic Sam - Easy Baby
TTITLE9=Lightnin' Hopkins - Play with your Poodle
TTITLE10=Pee Wee Clayton - Central Avenue Blues
TTITLE11=Arthur "Big Boy" Crudup - That's all right
TTITLE12=Noble Watts and June Bateman - Go Away Mr Blues
TTITLE13=Little Willie John - All Around The World
TTITLE14=Elmore James - It Hurts Me Too
TTITLE15=Jimmy Reed - I Found My Baby
TTITLE16=Johnny "Guitar" Watson - Gangster Of Love
TTITLE17=John Lee Hooker - Big Legs, Tight Skirt
TTITLE18=T.Bone Walker - T.Bone Shuffle
EXTD=
EXTT0=
EXTT1=
EXTT2=
EXTT3=
EXTT4=
EXTT5=
EXTT6=
EXTT7=
EXTT8=
EXTT9=
EXTT10=
EXTT11=
EXTT12=
EXTT13=
EXTT14=
EXTT15=
EXTT16=
EXTT17=
EXTT18=
PLAYORDER=
